<svg xmlns="http://www.w3.org/2000/svg" xmlns:xlink="http://www.w3.org/1999/xlink" viewBox="0 0 214.31 216.4"><defs><style>.cls-1{fill:url(#Áåçûìÿííûé_ãðàäèåíò_30);}.cls-2{fill:url(#radial-gradient);}.cls-3{fill:#4f46e5;}.cls-4{fill:url(#linear-gradient);}</style><radialGradient id="Áåçûìÿííûé_ãðàäèåíò_30" cx="154.37" cy="127.78" r="17.81" gradientUnits="userSpaceOnUse"><stop offset="0" stop-color="#292d95"/><stop offset="1" stop-color="#0083e8"/></radialGradient><radialGradient id="radial-gradient" cx="200.21" cy="73.6" r="191.94" gradientUnits="userSpaceOnUse"><stop offset="0" stop-color="#4f46e5"/><stop offset="1" stop-color="#4141d8"/></radialGradient><linearGradient id="linear-gradient" x1="193.47" y1="165.19" x2="149.15" y2="129.2" gradientUnits="userSpaceOnUse"><stop offset="0" stop-color="#fff"/><stop offset="1" stop-color="#4f46e5"/></linearGradient></defs><title>Asset 2</title><g id="Layer_2" data-name="Layer 2"><g id="Layer_1-2" data-name="Layer 1"><path class="cls-1" d="M165.86,131.83s-9.43-6.81-9.8-3.29c0,0,4.36,6.88,6.54,10a12.44,12.44,0,0,0,1.93-2.71A12.65,12.65,0,0,0,165.86,131.83Z"/><path class="cls-2" d="M214.31,107.05l-.16.11C214.2,107.09,214.25,107,214.31,107.05Z"/><path class="cls-2" d="M214.15,107.16c-.06.08-.1.15-.13.11a.36.36,0,0,1,.13-.11c0-.07.1-.15.16-.11A107.14,107.14,0,0,0,59.68,11.1,102.19,102.19,0,0,0,42,22.11a107.28,107.28,0,0,0,17.64,181.3,5.82,5.82,0,0,0,1,.51h0a106.13,106.13,0,0,0,46.44,10.58c59.13,0,107-48.33,107.16-107.45Zm-107,63.78a59.81,59.81,0,0,1-6.32-.33A63.69,63.69,0,0,1,61.93,62.45a63.65,63.65,0,0,1,45.22-18.89,63.69,63.69,0,0,1,0,127.38Z"/><path class="cls-2" d="M214.31,107.05l-.16.11C214.2,107.09,214.25,107,214.31,107.05Z"/><path class="cls-3" d="M209.36,187.67,176.14,216.4a219.05,219.05,0,0,1-53.09-58.76,1.54,1.54,0,0,1,.32-2c10.79-9.27,22.37-18.43,33.1-27.72.29.65.73,1.6,1.31,2.73a59.73,59.73,0,0,0,8.15,11.95c6.51,7.71,6.43,9.15,12.36,15.89A225.62,225.62,0,0,0,209.36,187.67Z"/><path class="cls-4" d="M165.86,131.83c-1.63-1-3.29-1.92-5-2.76a17.79,17.79,0,0,0-2.59-1,3,3,0,0,0-1.21-.13c-.26,0-.21.2-.14.63a18.84,18.84,0,0,0,2.84,4.69l3.36,4.61c4.48,6.14,9,12.27,13.83,18.08,9.52,11.79,20.13,22.72,32.39,31.77a106.26,106.26,0,0,1-18.24-13.8,175.66,175.66,0,0,1-15.63-16.76c-4.78-6-9.32-12.11-13.55-18.45l-3.15-4.76a18.9,18.9,0,0,1-2.76-5.19,1.8,1.8,0,0,1,0-.94,1,1,0,0,1,.84-.69,3.48,3.48,0,0,1,1.6.26,17.11,17.11,0,0,1,2.61,1.29A47.4,47.4,0,0,1,165.86,131.83Z"/></g></g></svg>