<svg xmlns="http://www.w3.org/2000/svg" viewBox="0 0 183.12 191.99"><defs><style>.cls-1{fill:#111827;}.cls-2{fill:#a5b4fc;}.cls-3{fill:#4f46e5;}</style></defs><title>Asset 3</title><g id="Layer_2" data-name="Layer 2"><g id="Layer_1-2" data-name="Layer 1"><path class="cls-1" d="M134.5,121.14l-5.21-6c-.66-.76-2.24-.47-3.53.64l-13.92,12c-1.29,1.11-1.81,2.63-1.15,3.39l5.21,6Z"/><path class="cls-2" d="M175.24,169.61c-18.44,1.12-18.64,16.06-18.64,16.06l2.83.85h0l.77.23h0l4.15,1.25h0l.83.25h0l1.95.59h0l.07,0h0l.62.18,9.33,2.81-.81-9.55h0l-.1-1.1a.06.06,0,0,0,0,0l0-.21h0l-.05-.58h0l-.07-.8h0l-.55-6.5h0l-.06-.73h0Z"/><path class="cls-3" d="M135.52,129.38l35.56,42.46a2.07,2.07,0,0,0,.34.15,3.22,3.22,0,0,0,.36.07h.35l.17,0,.15,0h0l.29-.07.08,0,.13,0,.09,0,.62-.3h0l.17-.1.2-.13.05,0,.55-.38,0,0,.39-.3,0,0,.16-.13.12-.11h0l.06,0,0,0,0,0,0,0h0l0,0h0l0,0h0v0L139,126.36Z"/><path class="cls-3" d="M120.42,142.39,157,186.08h0l.92-.61.09-.07.22-.19h0a.18.18,0,0,0,.07,0l.24-.22.17-.16.17-.17.16-.19.07-.08.1-.12.15-.2.15-.22.06-.09.13-.23a.8.8,0,0,0,.08-.16.43.43,0,0,0,0-.07h0a2.87,2.87,0,0,0,.15-.37l0,0s0,0,0,0h0v0a1.32,1.32,0,0,0,.09-.3v0h0s0,0,0-.07l.06-.31V182c0-.13,0-.25,0-.37v-.09c0-.13,0-.26,0-.39l-35.56-42.46Z"/><path class="cls-1" d="M176.21,181h0l-1.09.93-.31.27-.54.47-1.65,1.42-.33.29-1.64,1.41-.34.28L169,187.25l-.31.27-.55.46-.31.27-.68.59h0l1,.3h0l8.51,2.84a.6.6,0,0,0,.43-.15h0a.64.64,0,0,0,.22-.42l-1-9.13,0-.25c0-.3,0-.65-.07-.85s0-.17,0-.17"/><path class="cls-3" d="M124.64,138.76l35.56,42.46h0l.06,0,0,0,.07,0,.1,0,0,0,.12,0,.22-.1.06,0,.11-.05.06,0,.11,0,.15-.07.17-.08.08,0,0,0,.28-.14.07,0h0l.26-.14.16-.09.36-.19h0l.37-.21.1-.06.36-.21.17-.11.35-.22.11-.07.09,0,.14-.1.27-.18h0l0,0,.23-.16.38-.27.07-.05h0l.1-.07.13-.1.51-.4.12-.09.39-.33.07-.06h0l.26-.24h0l0,0,.23-.21h0l.07-.07L131.1,133.19Z"/><path class="cls-3" d="M131.09,133.2l36.32,43.47h0l.21-.2.3-.29c.22-.21.43-.44.64-.67l.27-.31.33-.38h0l0-.05,0,0,.26-.33c.34-.45.65-.91.95-1.4l.22-.38c.14-.25.27-.5.4-.77L135.5,129.4Z"/><rect class="cls-1" x="114.85" y="127.38" width="24.54" height="7.96" transform="translate(-54.93 114.83) rotate(-40.75)"/><rect class="cls-1" x="116.36" y="132.48" width="24.54" height="1.28" transform="translate(-55.71 116.24) rotate(-40.75)"/><rect class="cls-1" x="114.82" y="130.69" width="24.54" height="1.28" transform="translate(-54.92 114.8) rotate(-40.75)"/><rect class="cls-1" x="113.27" y="128.9" width="24.54" height="1.28" transform="translate(-54.12 113.36) rotate(-40.75)"/><path class="cls-3" d="M182.37,79.8a90,90,0,0,1-10.44,55l-16-18.07A69.21,69.21,0,0,0,82.48,23.08a69.08,69.08,0,0,0,17.92,137,37.85,37.85,0,0,0,5.17-.93l16.56,18.74a98.21,98.21,0,0,1-18.81,4.48A91.26,91.26,0,0,1,.8,103.56,91.46,91.46,0,0,1,18.87,35.69,91.38,91.38,0,0,1,146.94,18.93,91,91,0,0,1,182.37,79.8Z"/></g></g></svg>