<svg xmlns="http://www.w3.org/2000/svg" viewBox="0 0 224.89 218.3"><defs><style>.cls-1{isolation:isolate;}.cls-2{fill:#4f46e5;}.cls-3{fill:#4545db;}.cls-4{fill:#79e2d6;opacity:0.76;mix-blend-mode:soft-light;}</style></defs><title>Asset 1</title><g class="cls-1"><g id="Layer_2" data-name="Layer 2"><g id="Layer_1-2" data-name="Layer 1"><path class="cls-2" d="M224.85,161.53c-1.39-4.4-19.31-22.15-20-22.89-2.24-2.24,7.31-31-7-74.9S128.38-19.79,55.39,10.82C-17.35,41.34-9.87,151.33,28.76,190c38.3,38.3,107.78,38.66,141.92-4.27,1.88-2.37,16,13.86,20,13.86S226.23,165.93,224.85,161.53Zm-60.42-42.67c-.78,2.52-25.14-16.85-30.51-18.28s-29.31,27.7-27.38,33c1.85,5,27.7,22.05,27.7,24.4s-19.56,20.31-49.56,8.22c-33.16-13.36-44.6-78.83-.08-105S174.91,85.06,164.43,118.86Z"/><path class="cls-3" d="M204.8,138.64c-.44-.44-.42-1.91-.22-4.3q-7.44,1.69-15,2.91c-26.75,4.3-54.71,4.31-81.35-1.33,6.18,6.65,26,20,26,22,0,2.35-19.56,20.31-49.56,8.22-17.35-7-28.75-28.25-29.3-50.68C35,103.15,17.81,85.87,6.53,65.22-8.36,109.27,3.58,164.78,28.76,190c38.3,38.3,107.78,38.66,141.92-4.27,1.88-2.37,16,13.86,20,13.86s35.51-33.62,34.13-38S205.54,139.38,204.8,138.64Z"/><path class="cls-4" d="M158.64,31.66a65,65,0,0,1,22.1,31.94c1.18,3.72,7,2.16,5.87-1.62a70.08,70.08,0,0,0-25-35.49c-1.29-1-3.35-.2-4.09,1.07a3.07,3.07,0,0,0,1.07,4.1Z"/><path class="cls-4" d="M189.61,72.35A3,3,0,0,0,186,70.27c-2.39.78-2.31,3.8-2.08,5.82.2,1.81.39,5.5,1.74,6.85a3,3,0,0,0,5-2.06A38.88,38.88,0,0,0,189.61,72.35Z"/><path class="cls-4" d="M119.7,129.54c1.16-1.45,7.66-8.51,7.57-10.73-.11-2.39-3.19-3.85-4.91-2-2.47,2.68-4.62,5.65-6.87,8.51a3.09,3.09,0,0,0-.1,4.1C116.42,130.57,118.66,130.83,119.7,129.54Z"/><path class="cls-4" d="M133,114.31a4.12,4.12,0,0,0,1.6-3.38c-.36-4.35-4.85-3.2-6.64-.55a4.41,4.41,0,0,0-.77,1.91,3,3,0,0,0,3.51,3.22A5.32,5.32,0,0,0,133,114.31Z"/></g></g></g></svg>